<?xml version="1.0" encoding="UTF-8"?>
<svg version="1.1" xmlns="http://www.w3.org/2000/svg" width="1216" height="575">
<path d="M0 0 C401.28 0 802.56 0 1216 0 C1216 189.75 1216 379.5 1216 575 C814.72 575 413.44 575 0 575 C0 385.25 0 195.5 0 0 Z " fill="#FEFEFE" transform="translate(0,0)"/>
<path d="M0 0 C7.84295301 -0.07674667 15.6858074 -0.1288892 23.52905273 -0.16479492 C26.19134427 -0.17807017 28.85313637 -0.2001744 31.51538086 -0.22631836 C55.25703298 -0.45344728 77.82817833 0.03342674 96.75 16.375 C102.76617701 23.39387317 105.32759331 29.16426768 105.21875 38.40234375 C104.68344665 44.75907106 102.18000109 49.25372425 98 54 C87.1368607 62.8251321 74.00420999 65.86347238 60.5625 68.3125 C59.67796143 68.48418701 58.79342285 68.65587402 57.88208008 68.83276367 C46.45063978 70.73288255 35.93760498 70 24 70 C24.495 96.235 24.495 96.235 25 123 C26.65 123.33 28.3 123.66 30 124 C30 125.32 30 126.64 30 128 C20.1 128 10.2 128 0 128 C0 126.68 0 125.36 0 124 C0.61875 123.938125 1.2375 123.87625 1.875 123.8125 C4.14973539 123.19586618 4.14973539 123.19586618 5.11564636 121.10609436 C6.40864263 116.56473414 6.28636127 112.19012549 6.2746582 107.48999023 C6.27976913 106.43254608 6.28488007 105.37510193 6.29014587 104.28561401 C6.3040368 100.79321624 6.30308579 97.30101585 6.30078125 93.80859375 C6.30466773 91.38151476 6.3090023 88.95443644 6.31376648 86.52735901 C6.3212271 81.44245192 6.320938 76.35761427 6.31567383 71.27270508 C6.30987181 64.75001679 6.32682889 58.22761178 6.3500185 51.70497036 C6.36473246 46.69418165 6.36563085 41.68346159 6.36250877 36.67265511 C6.36302291 34.26724752 6.36827788 31.86183618 6.37832069 29.45644951 C6.39062562 26.09764916 6.38392942 22.73940633 6.37231445 19.38061523 C6.37995819 18.38362106 6.38760193 17.38662689 6.39547729 16.35942078 C6.38846298 15.44400513 6.38144867 14.52858948 6.3742218 13.58543396 C6.37438954 12.79181174 6.37455729 11.99818953 6.37473011 11.18051815 C5.89801906 8.40658278 4.91272985 7.04123193 3 5 C2.01 4.67 1.02 4.34 0 4 C0 2.68 0 1.36 0 0 Z " fill="#090909" transform="translate(121,291)"/>
<path d="M0 0 C8.58 0 17.16 0 26 0 C27.31097656 2.89458984 27.31097656 2.89458984 28.6484375 5.84765625 C35.70958909 21.4245455 42.82064187 36.97722034 50 52.5 C58.07763574 69.96498191 66.06350585 87.47046829 74 105 C76.31731305 101.52403043 77.80695271 97.88328657 79.38671875 94.0390625 C79.72052551 93.23366531 80.05433228 92.42826813 80.39825439 91.59846497 C81.49800948 88.9420105 82.59286518 86.28356802 83.6875 83.625 C84.45306454 81.77215818 85.21877263 79.91937568 85.98461914 78.06665039 C91.6474022 64.35129611 97.23381504 50.60542752 102.79199219 36.84741211 C107.77172004 24.52632474 112.86054274 12.25562885 118 0 C125.59 0 133.18 0 141 0 C141 1.32 141 2.64 141 4 C140.0409375 4.433125 140.0409375 4.433125 139.0625 4.875 C136.84793921 5.82823451 136.84793921 5.82823451 136 8 C135.90870604 10.59451549 135.8797241 13.15823387 135.90087891 15.75244141 C135.90623878 16.9498165 135.90623878 16.9498165 135.91170692 18.171381 C135.97961268 28.10487398 136.27876626 38.03250879 136.5859375 47.9609375 C136.63183958 49.46773008 136.63183958 49.46773008 136.67866898 51.00496292 C136.83992876 56.2941006 137.0044642 61.58312388 137.171875 66.87207031 C137.34378081 72.32348571 137.50425066 77.77517801 137.66228294 83.22701073 C137.7864643 87.44103193 137.91893156 91.6547631 138.05369949 95.86845779 C138.11660103 97.88022037 138.17637791 99.8920832 138.23295212 101.90403366 C138.31237503 104.70119183 138.40350463 107.49773452 138.49755859 110.29443359 C138.51842026 111.12139236 138.53928192 111.94835114 138.56077576 112.80036926 C138.71493954 118.22004539 138.71493954 118.22004539 141 123 C143.0335948 124.26804566 143.0335948 124.26804566 145 125 C145 125.99 145 126.98 145 128 C135.1 128 125.2 128 115 128 C115 127.01 115 126.02 115 125 C115.639375 124.71125 116.27875 124.4225 116.9375 124.125 C119.15206079 123.17176549 119.15206079 123.17176549 120 121 C120.09741491 119.52354384 120.1307698 118.04265321 120.1328125 116.56298828 C120.13482666 115.60939423 120.13684082 114.65580017 120.13891602 113.67330933 C120.13202759 112.0754509 120.13202759 112.0754509 120.125 110.4453125 C120.12234131 109.31167267 120.11968262 108.17803284 120.11694336 107.01004028 C120.02951498 90.20041341 119.52609122 73.3961827 119.07287598 56.59332275 C118.94972693 51.99978062 118.83052344 47.40613603 118.7109375 42.8125 C118.47770871 33.87489856 118.2402806 24.93741445 118 16 C117.59600983 16.971082 117.19201965 17.942164 116.77578735 18.94267273 C109.38494436 36.70577413 101.98953888 54.46646063 94.4881897 72.18325806 C92.51215683 76.85044865 90.5393715 81.51901199 88.56640625 86.1875 C87.98499123 87.56304802 87.98499123 87.56304802 87.39183044 88.96638489 C81.89925488 101.96556034 76.44682371 114.98159929 71 128 C69.35 128 67.7 128 66 128 C59.80954673 115.68771893 53.73067016 103.3226494 47.6875 90.9375 C47.22401154 89.98812561 46.76052307 89.03875122 46.2829895 88.06060791 C39.89994587 74.9840723 33.55618708 61.89086701 27.30957031 48.74853516 C24.65658947 43.18044077 21.98293983 37.62223614 19.3125 32.0625 C18.78197021 30.9576123 18.25144043 29.85272461 17.70483398 28.71435547 C16.47004823 26.14282728 15.23510555 23.5713746 14 21 C13.19520062 36.47486019 12.75140542 51.93860957 12.49731445 67.43188477 C12.4375068 71.06208712 12.37242897 74.69216722 12.30664062 78.32226562 C12.20410448 84.12429523 12.11687087 89.92636102 12.04266357 95.7288208 C12.01447541 97.89011485 11.98348083 100.05137433 11.94952393 102.21258545 C11.90515915 105.16124818 11.87423745 108.10972423 11.84765625 111.05859375 C11.83254501 111.92758804 11.81743378 112.79658234 11.80186462 113.69190979 C11.76650279 118.64027612 11.76650279 118.64027612 14 123 C16.05003955 124.19232613 16.05003955 124.19232613 18 125 C18 125.99 18 126.98 18 128 C11.4 128 4.8 128 -2 128 C-2 127.01 -2 126.02 -2 125 C-0.36368108 123.95107762 1.30485863 122.95093297 3 122 C4.43842276 119.12315448 4.33187158 116.4599252 4.52905273 113.25317383 C4.57051391 112.58207738 4.61197508 111.91098093 4.65469265 111.21954823 C5.05823726 104.46679948 5.31628801 97.71027545 5.53515625 90.94921875 C5.5784053 89.66233658 5.62165436 88.37545441 5.66621399 87.04957581 C5.80351913 82.92904435 5.93414397 78.80831907 6.0625 74.6875 C6.08427559 73.98874252 6.10605118 73.28998505 6.12848663 72.5700531 C6.92199125 47.97598076 6.92199125 47.97598076 7.35348511 23.37417603 C7.36771794 21.96896113 7.38854883 20.56379608 7.41629028 19.15878296 C7.45109373 17.27799342 7.45702562 15.39673246 7.4609375 13.515625 C7.46915527 12.50790039 7.47737305 11.50017578 7.48583984 10.46191406 C7.21782795 7.87186097 7.21782795 7.87186097 5.15869141 6.21777344 C2.93284253 4.8716709 2.93284253 4.8716709 0 4 C0 2.68 0 1.36 0 0 Z " fill="#F3792F" transform="translate(599,291)"/>
<path d="M0 0 C3.60568404 1.80284202 4.38410323 6.26813967 5.8125 9.875 C6.16707275 10.76525879 6.52164551 11.65551758 6.88696289 12.57275391 C16.47263054 37.30504029 20.68644399 64.21689451 9.75 89.25390625 C5.44209394 98.66774827 0.05693412 107.02530673 -6 115.375 C-9.95595772 120.84894871 -13.51828719 126.34041563 -16.5625 132.375 C-16.87251953 132.98005371 -17.18253906 133.58510742 -17.50195312 134.20849609 C-22.55813863 144.67277311 -23.4330753 154.6026982 -23.25 166.125 C-23.24484375 167.43082031 -23.2396875 168.73664063 -23.234375 170.08203125 C-23.18007243 176.79518705 -22.90262 183.34681713 -22 190 C-30.26134574 182.48968569 -35.20529416 173.40346321 -39 163 C-39.35449219 162.03578125 -39.70898438 161.0715625 -40.07421875 160.078125 C-49.35620202 129.21650974 -35.40644246 98.92916192 -22.13314819 71.85430908 C-17.04893215 61.46522506 -12.59893204 50.96008974 -8.73583984 40.05322266 C-8.09978299 38.27842567 -7.42273711 36.51841816 -6.73828125 34.76171875 C-2.36270984 23.52186802 -0.57834585 12.00566216 0 0 Z " fill="#F3772B" transform="translate(618,48)"/>
<path d="M0 0 C0.91201172 -0.02449219 1.82402344 -0.04898438 2.76367188 -0.07421875 C9.06565114 -0.10132404 13.34883177 1.04883459 18.6875 4.375 C19.44160156 4.80941406 20.19570312 5.24382812 20.97265625 5.69140625 C28.37639446 10.88215897 33.368289 18.65908144 35.6875 27.375 C37.06979844 39.31414406 35.69619234 48.30324953 28.6875 58.375 C22.23267101 66.16021359 13.81865051 70.5000142 3.85546875 71.921875 C-6.26817066 72.65265019 -13.96332467 70.1535641 -22.3125 64.375 C-28.61541577 58.87712955 -33.76696514 51.73233668 -35.3125 43.375 C-36.45243581 25.22946441 -36.45243581 25.22946441 -31.3125 17.375 C-30.9 16.69308594 -30.4875 16.01117188 -30.0625 15.30859375 C-22.77723901 4.40139903 -12.64913591 0.01765406 0 0 Z " fill="#FEFBFA" transform="translate(1049.3125,213.625)"/>
<path d="M0 0 C5.31484326 4.26946048 9.13565619 9.28593212 10.04954529 16.19354248 C10.17795666 19.36546124 10.18875393 22.51706749 10.15625 25.69140625 C10.16329956 26.84699036 10.17034912 28.00257446 10.1776123 29.19317627 C10.19957772 32.8646893 10.1966512 36.53547195 10.1875 40.20703125 C10.17548256 45.0563837 10.18906915 49.90464975 10.21875 54.75390625 C10.20743042 55.86747498 10.19611084 56.9810437 10.18444824 58.12835693 C10.1912561 59.16333313 10.19806396 60.19830933 10.20507812 61.26464844 C10.20189575 62.17317566 10.19871338 63.08170288 10.19543457 64.01776123 C10.84278341 67.22680322 12.17912569 68.42432301 14.6875 70.45703125 C17.75041061 71.19040421 20.59796781 71.03169562 23.6875 70.45703125 C26.49434139 68.36989278 27.74200926 66.37526736 29.6875 63.45703125 C29.14857447 70.19360041 27.21825472 74.179352 22.1875 78.70703125 C17.45118236 82.02245359 14.62544922 83.05082617 8.6875 82.45703125 C2.7046054 80.659888 -0.38828953 77.69227353 -3.5 72.359375 C-4.3125 70.45703125 -4.3125 70.45703125 -4.3125 67.45703125 C-5.18390625 68.04871094 -6.0553125 68.64039063 -6.953125 69.25 C-17.90639916 76.56146128 -28.54929928 82.60642655 -42 82.76953125 C-42.77794922 82.79853516 -43.55589844 82.82753906 -44.35742188 82.85742188 C-51.20130062 82.93162573 -55.8580766 80.87383866 -61.40625 76.9921875 C-64.95091635 73.28013413 -65.82276 70.13983237 -66.125 65.01953125 C-65.82949128 59.29979575 -64.63044168 56.02838409 -60.46484375 52.09375 C-48.97493527 43.35641488 -33.35225014 40.96355443 -19.5 38.14453125 C-18.65840332 37.97300537 -17.81680664 37.80147949 -16.94970703 37.62475586 C-16.1554834 37.47014893 -15.36125977 37.31554199 -14.54296875 37.15625 C-13.84582764 37.02049561 -13.14868652 36.88474121 -12.43041992 36.74487305 C-10.03757716 36.4196671 -7.72444452 36.40988283 -5.3125 36.45703125 C-5.39374692 31.93548278 -5.50656307 27.41524641 -5.625 22.89453125 C-5.65883789 20.97930664 -5.65883789 20.97930664 -5.69335938 19.02539062 C-5.93524764 9.83189581 -5.93524764 9.83189581 -9.3125 1.45703125 C-14.23130838 -3.15435161 -19.53848354 -2.82514429 -25.95703125 -2.75390625 C-34.13850557 -2.23958772 -40.32228535 0.91573198 -46.3125 6.45703125 C-48.57701551 9.27052022 -49.38805287 10.4244754 -49.125 14.01953125 C-48.39404341 16.43694085 -48.39404341 16.43694085 -47.25 18.45703125 C-46.01510579 21.09147224 -45.82053401 22.57551615 -46.3125 25.45703125 C-48.81134415 28.76432497 -50.25620415 30.26301773 -54.375 31.01953125 C-57.94915177 30.33511921 -59.11253128 29.30884256 -61.3125 26.45703125 C-62.55372431 22.73335833 -62.76310151 20.38370159 -62.3125 16.45703125 C-56.47989051 5.1257403 -44.74994126 -0.42659496 -33.3125 -4.54296875 C-22.13830073 -7.45108055 -9.67932111 -6.45833081 0 0 Z " fill="#040404" transform="translate(385.3125,337.54296875)"/>
<path d="M0 0 C0.33 19.8 0.66 39.6 1 60 C3.97 57.36 6.94 54.72 10 52 C13.0390625 50.01171875 13.0390625 50.01171875 15.625 48.6875 C16.55183594 48.21183594 17.47867188 47.73617187 18.43359375 47.24609375 C19.28050781 46.83488281 20.12742187 46.42367187 21 46 C21.65097656 45.68160156 22.30195312 45.36320312 22.97265625 45.03515625 C32.76492544 40.55167992 44.07141664 38.85539633 54.375 42.625 C62.57749425 46.44042277 67.3629609 51.73400205 71 60 C72.02685625 63.31409716 72.14172192 66.3774067 72.17358398 69.83837891 C72.18707382 71.01284576 72.20056366 72.18731262 72.21446228 73.39736938 C72.23011986 75.29281998 72.23011986 75.29281998 72.24609375 77.2265625 C72.27059253 79.21112541 72.29510252 81.19568826 72.32029057 83.18024254 C72.38106265 88.07385145 72.43191089 92.96754969 72.47680664 97.86132812 C72.50240706 100.61030987 72.53319366 103.3591419 72.56959534 106.10800171 C72.6035351 108.69874718 72.62939419 111.28961298 72.64659119 113.88052368 C72.66323318 115.04868622 72.67987518 116.21684875 72.69702148 117.42041016 C72.71248268 118.96784409 72.71248268 118.96784409 72.72825623 120.54653931 C72.76098386 123.17762808 72.76098386 123.17762808 75 125 C75 125.99 75 126.98 75 128 C68.07 128 61.14 128 54 128 C54.495 126.02 54.495 126.02 55 124 C55.66 123.67 56.32 123.34 57 123 C57.10169191 115.17133723 57.1715885 107.34284578 57.21972656 99.51367188 C57.23753649 96.85189753 57.26706285 94.19098972 57.30175781 91.52929688 C57.35045548 87.6965042 57.37301116 83.86429637 57.390625 80.03125 C57.41127014 78.84760864 57.43191528 77.66396729 57.45318604 76.44445801 C57.45524666 68.80173277 56.76942739 62.89342172 51.21875 57.16015625 C50.6515625 56.79792969 50.084375 56.43570313 49.5 56.0625 C48.9328125 55.68222656 48.365625 55.30195313 47.78125 54.91015625 C39.08529234 50.46682701 24.27884414 51.82954213 15.3125 54.625 C12.7010132 55.51308308 12.7010132 55.51308308 10 57 C9.27278748 57.31859985 8.54557495 57.63719971 7.79632568 57.9654541 C5.04629236 59.40211896 3.11151294 60.71246387 1 63 C-0.32951338 67.62981361 -0.18797926 72.13995858 -0.09765625 76.9296875 C-0.10331447 78.28876898 -0.11293217 79.64783921 -0.12632751 81.00686646 C-0.15087192 84.56854265 -0.12192656 88.12781715 -0.08154297 91.68927002 C-0.04982879 95.32938703 -0.06910111 98.96920303 -0.08398438 102.609375 C-0.10567415 109.74010291 -0.0708159 116.8695417 0 124 C0.99 124 1.98 124 3 124 C3 125.32 3 126.64 3 128 C-3.93 128 -10.86 128 -18 128 C-18 126.68 -18 125.36 -18 124 C-17.01 124 -16.02 124 -15 124 C-15.08384542 109.05758657 -15.17895854 94.11527663 -15.28752708 79.17302227 C-15.3376727 72.23524371 -15.38411533 65.29747708 -15.421875 58.35961914 C-15.45830386 51.66818276 -15.50500629 44.97689111 -15.55806351 38.28556252 C-15.57664153 35.72863839 -15.59173678 33.17168657 -15.60334396 30.6147213 C-15.62014802 27.0420845 -15.64916917 23.46974534 -15.68115234 19.8972168 C-15.68331253 18.83266769 -15.68547272 17.76811859 -15.68769836 16.67131042 C-15.69886185 15.69955872 -15.71002533 14.72780701 -15.7215271 13.72660828 C-15.72982324 12.45868203 -15.72982324 12.45868203 -15.73828697 11.16514111 C-15.87048799 8.70585387 -15.87048799 8.70585387 -18 6 C-18 5.01 -18 4.02 -18 3 C-16.69466958 2.4815709 -15.38006852 1.98648684 -14.0625 1.5 C-13.33160156 1.2215625 -12.60070312 0.943125 -11.84765625 0.65625 C-9 0 -9 0 0 0 Z " fill="#070707" transform="translate(968,291)"/>
<path d="M0 0 C0.33 19.8 0.66 39.6 1 60 C3.97 57.36 6.94 54.72 10 52 C13.0390625 50.01171875 13.0390625 50.01171875 15.625 48.6875 C16.55183594 48.21183594 17.47867188 47.73617187 18.43359375 47.24609375 C19.28050781 46.83488281 20.12742187 46.42367187 21 46 C21.65097656 45.68160156 22.30195312 45.36320312 22.97265625 45.03515625 C32.76492544 40.55167992 44.07141664 38.85539633 54.375 42.625 C62.57749425 46.44042277 67.3629609 51.73400205 71 60 C72.02685625 63.31409716 72.14172192 66.3774067 72.17358398 69.83837891 C72.18707382 71.01284576 72.20056366 72.18731262 72.21446228 73.39736938 C72.23011986 75.29281998 72.23011986 75.29281998 72.24609375 77.2265625 C72.27059253 79.21112541 72.29510252 81.19568826 72.32029057 83.18024254 C72.38106265 88.07385145 72.43191089 92.96754969 72.47680664 97.86132812 C72.50240706 100.61030987 72.53319366 103.3591419 72.56959534 106.10800171 C72.6035351 108.69874718 72.62939419 111.28961298 72.64659119 113.88052368 C72.66323318 115.04868622 72.67987518 116.21684875 72.69702148 117.42041016 C72.71248268 118.96784409 72.71248268 118.96784409 72.72825623 120.54653931 C72.76098386 123.17762808 72.76098386 123.17762808 75 125 C75 125.99 75 126.98 75 128 C68.07 128 61.14 128 54 128 C54.495 126.02 54.495 126.02 55 124 C55.66 123.67 56.32 123.34 57 123 C57.10169191 115.17133723 57.1715885 107.34284578 57.21972656 99.51367188 C57.23753649 96.85189753 57.26706285 94.19098972 57.30175781 91.52929688 C57.35045548 87.6965042 57.37301116 83.86429637 57.390625 80.03125 C57.41127014 78.84760864 57.43191528 77.66396729 57.45318604 76.44445801 C57.45524666 68.80173277 56.76942739 62.89342172 51.21875 57.16015625 C50.6515625 56.79792969 50.084375 56.43570313 49.5 56.0625 C48.9328125 55.68222656 48.365625 55.30195313 47.78125 54.91015625 C39.08529234 50.46682701 24.27884414 51.82954213 15.3125 54.625 C12.7010132 55.51308308 12.7010132 55.51308308 10 57 C9.27278748 57.31859985 8.54557495 57.63719971 7.79632568 57.9654541 C5.04629236 59.40211896 3.11151294 60.71246387 1 63 C-0.32951338 67.62981361 -0.18797926 72.13995858 -0.09765625 76.9296875 C-0.10331447 78.28876898 -0.11293217 79.64783921 -0.12632751 81.00686646 C-0.15087192 84.56854265 -0.12192656 88.12781715 -0.08154297 91.68927002 C-0.04982879 95.32938703 -0.06910111 98.96920303 -0.08398438 102.609375 C-0.10567415 109.74010291 -0.0708159 116.8695417 0 124 C0.99 124 1.98 124 3 124 C3 125.32 3 126.64 3 128 C-3.93 128 -10.86 128 -18 128 C-18 126.68 -18 125.36 -18 124 C-17.01 124 -16.02 124 -15 124 C-15.08384542 109.05758657 -15.17895854 94.11527663 -15.28752708 79.17302227 C-15.3376727 72.23524371 -15.38411533 65.29747708 -15.421875 58.35961914 C-15.45830386 51.66818276 -15.50500629 44.97689111 -15.55806351 38.28556252 C-15.57664153 35.72863839 -15.59173678 33.17168657 -15.60334396 30.6147213 C-15.62014802 27.0420845 -15.64916917 23.46974534 -15.68115234 19.8972168 C-15.68331253 18.83266769 -15.68547272 17.76811859 -15.68769836 16.67131042 C-15.69886185 15.69955872 -15.71002533 14.72780701 -15.7215271 13.72660828 C-15.72982324 12.45868203 -15.72982324 12.45868203 -15.73828697 11.16514111 C-15.87048799 8.70585387 -15.87048799 8.70585387 -18 6 C-18 5.01 -18 4.02 -18 3 C-16.69466958 2.4815709 -15.38006852 1.98648684 -14.0625 1.5 C-13.33160156 1.2215625 -12.60070312 0.943125 -11.84765625 0.65625 C-9 0 -9 0 0 0 Z " fill="#070707" transform="translate(509,291)"/>
<path d="M0 0 C5.218125 -0.061875 10.43625 -0.12375 15.8125 -0.1875 C18.24653198 -0.22846802 18.24653198 -0.22846802 20.72973633 -0.27026367 C34.05481565 -0.3463322 46.90866082 1.60262604 57.140625 10.95703125 C58.90572744 12.89641901 60.47582728 14.86789514 62 17 C62.639375 17.886875 63.27875 18.77375 63.9375 19.6875 C66.22959032 26.83342865 66.14059173 34.42140883 63.0625 41.3125 C57.94154191 50.20907973 49.61290165 56.19648137 39.8203125 58.8671875 C25.98905193 62.16034478 15.1477768 62 0 62 C0 41.54 0 21.08 0 0 Z " fill="#FDFDFD" transform="translate(145,295)"/>
<path d="M0 0 C5.13789509 4.57821153 8.57083327 9.05470177 10.79296875 15.59765625 C10.79296875 16.91765625 10.79296875 18.23765625 10.79296875 19.59765625 C-16.59703125 19.59765625 -43.98703125 19.59765625 -72.20703125 19.59765625 C-72.44307616 45.43687356 -72.44307616 45.43687356 -59.703125 66.17578125 C-51.1164388 73.94357367 -41.4883569 75.29994596 -30.32861328 74.78125 C-17.25171869 73.6496246 -5.56915377 68.48187991 4.79296875 60.59765625 C1.40802745 68.46764477 -7.70606558 72.39662413 -15.20703125 75.59765625 C-23.00965858 78.32692288 -30.35024858 79.11546324 -38.58203125 79.03515625 C-39.68111816 79.02685791 -40.78020508 79.01855957 -41.91259766 79.01000977 C-56.75648614 78.70089959 -69.03493306 74.29239587 -79.58203125 63.41015625 C-88.17872222 52.83233485 -89.37986881 42.04462455 -88.45068359 28.84863281 C-87.2598488 17.84713299 -80.8324865 8.08377159 -72.40234375 1.16015625 C-52.83404679 -12.76745725 -19.7324038 -14.92334601 0 0 Z " fill="#0D0D0D" transform="translate(842.20703125,341.40234375)"/>
<path d="M0 0 C5.65640458 4.41262934 10.62848328 9.31702826 15 15 C14.67 15.66 14.34 16.32 14 17 C12.40671875 16.38511719 12.40671875 16.38511719 10.78125 15.7578125 C9.35425795 15.21330238 7.92716941 14.66904508 6.5 14.125 C5.45585938 13.72087891 5.45585938 13.72087891 4.390625 13.30859375 C-14.63074786 6.08751701 -30.59289804 9.94396963 -49.01464844 16.98095703 C-62.35369639 21.94831235 -78.97775953 21.83094617 -92.04541016 16.10351562 C-102.96030939 10.92590361 -113.56050097 4.74849671 -122 -4 C-121.14075928 -3.83991455 -120.28151855 -3.6798291 -119.39624023 -3.51489258 C-99.36684805 -0.47830368 -78.50801145 -3.36261193 -58.98828125 -7.93359375 C-38.77418719 -12.50088635 -17.87977915 -11.34389349 0 0 Z " fill="#F3782C" transform="translate(575,226)"/>
<path d="M0 0 C0.66 0 1.32 0 2 0 C8.05766495 18.17299486 2.30193332 45.16977733 -5.91357422 61.85546875 C-12.23828616 73.97392917 -21.06290134 84.74044832 -32 93 C-32.99 93 -33.98 93 -35 93 C-39.05077399 77.70792147 -40.08428697 58.06149914 -32 44 C-31.5771875 43.17757812 -31.154375 42.35515625 -30.71875 41.5078125 C-26.43228129 33.70743631 -20.57831778 26.89586331 -15 20 C-13.36322268 17.97346692 -11.72732339 15.94625809 -10.09423828 13.91674805 C-9.05697593 12.62898604 -8.01645106 11.34384284 -6.97216797 10.06176758 C-4.86410603 7.45115682 -2.98277251 4.97059581 -1.28125 2.06640625 C-0.8584375 1.38449219 -0.435625 0.70257813 0 0 Z " fill="#F3772B" transform="translate(641,139)"/>
<path d="M0 0 C0 6.6 0 13.2 0 20 C11.22 20 22.44 20 34 20 C34 22.31 34 24.62 34 27 C22.78 27 11.56 27 0 27 C0.04673348 34.53110058 0.09729804 42.06054217 0.18379211 49.59102631 C0.22300988 53.09854511 0.25546615 56.60581492 0.27099609 60.11352539 C0.28917878 64.1476996 0.33918781 68.18095542 0.390625 72.21484375 C0.39185364 73.45894516 0.39308228 74.70304657 0.39434814 75.98484802 C0.51117607 82.97927873 1.02689835 89.05327031 5 95 C8.59696707 98.32969426 12.01749611 99.24138959 16.875 99.4375 C23.43934909 99.13775803 28.88713551 97.79818254 33.9375 93.5 C36.0827905 90.98590444 36.0827905 90.98590444 38 88 C38.66 88 39.32 88 40 88 C38.57884208 95.10578961 33.65744755 99.00373862 28.29296875 103.3984375 C21.13324884 107.95609216 10.33865524 107.00292656 2.296875 105.4921875 C-4.50366986 103.2339913 -8.52157393 97.99728632 -12 92 C-14.57305415 85.31747599 -14.25465757 78.71491031 -14.1953125 71.62890625 C-14.1924826 70.35144028 -14.18965271 69.0739743 -14.18673706 67.75779724 C-14.17747007 64.38266422 -14.15954066 61.00780796 -14.1373291 57.63275146 C-14.11676863 54.18032201 -14.10771366 50.72786382 -14.09765625 47.27539062 C-14.07564911 40.51684153 -14.04114643 33.75845858 -14 27 C-17.63 27 -21.26 27 -25 27 C-23.30427347 23.60854693 -22.41745372 22.2059289 -19.8125 19.75 C-17.26329151 17.2797959 -14.87180507 14.75845477 -12.5625 12.0625 C-2.15239726 0 -2.15239726 0 0 0 Z " fill="#020202" transform="translate(446,314)"/>
<path d="M0 0 C2.76498011 1.77748722 4.35436008 3.25369243 5.859375 6.1953125 C6.484375 9.6953125 6.484375 9.6953125 5.859375 13.1953125 C3.296875 16.1953125 3.296875 16.1953125 -0.140625 18.1953125 C-4.14286335 18.26431661 -6.2525081 17.82634293 -9.515625 15.5078125 C-11.140625 13.1953125 -11.140625 13.1953125 -11.515625 10.1328125 C-11.8527112 7.01219069 -11.8527112 7.01219069 -14.515625 5.3203125 C-23.34841571 2.57910159 -31.06176949 3.96042856 -39.140625 8.1953125 C-44.42164396 11.22608596 -48.64869614 14.11657214 -52.140625 19.1953125 C-52.75000891 22.11114161 -52.75000891 22.11114161 -52.68652344 25.27075195 C-52.71610138 27.07205315 -52.71610138 27.07205315 -52.74627686 28.90974426 C-52.74750549 30.19636459 -52.74873413 31.48298492 -52.75 32.80859375 C-52.76499015 34.14668268 -52.78171907 35.48475317 -52.80010986 36.82279968 C-52.84370316 40.33266067 -52.86376419 43.84227211 -52.87884521 47.35235596 C-52.89844565 50.93882962 -52.94041219 54.52503492 -52.98046875 58.11132812 C-53.05568328 65.13922155 -53.10602753 72.16710493 -53.140625 79.1953125 C-52.150625 79.1953125 -51.160625 79.1953125 -50.140625 79.1953125 C-50.140625 80.5153125 -50.140625 81.8353125 -50.140625 83.1953125 C-57.070625 83.1953125 -64.000625 83.1953125 -71.140625 83.1953125 C-71.140625 81.8753125 -71.140625 80.5553125 -71.140625 79.1953125 C-70.150625 79.1953125 -69.160625 79.1953125 -68.140625 79.1953125 C-68.22505017 69.76350713 -68.31994199 60.33188179 -68.42815208 50.9003191 C-68.4780719 46.52073642 -68.52440231 42.14117735 -68.5625 37.76147461 C-68.59940734 33.53385459 -68.64578206 29.30643422 -68.69868851 25.07898521 C-68.71720351 23.4671142 -68.73232215 21.85520043 -68.74396896 20.24326515 C-68.76088112 17.98333979 -68.78992751 15.72386877 -68.82177734 13.46411133 C-68.83510101 12.17837723 -68.84842468 10.89264313 -68.8621521 9.56794739 C-69.1282029 6.34575878 -69.75298797 4.09172125 -71.140625 1.1953125 C-64.78976686 -1.62729112 -60.08755544 -2.09414294 -53.140625 -1.8046875 C-52.645625 6.6103125 -52.645625 6.6103125 -52.140625 15.1953125 C-50.160625 12.9678125 -50.160625 12.9678125 -48.140625 10.6953125 C-35.41718137 -1.84943108 -17.02275195 -8.39397769 0 0 Z " fill="#080808" transform="translate(304.140625,335.8046875)"/>
<path d="M0 0 C-3 2 -3 2 -6.4375 3.75 C-10.15346801 5.8914053 -12.11050929 8.06985932 -14 12 C-14.80758553 16.162812 -14.35494531 19.17179428 -12.6875 23.0625 C-5.54321801 30.87136636 4.21958006 34.90371198 14.1875 37.8125 C24.92590617 41.06244341 35.94115218 45.6515899 42.4375 55.25 C45.03009019 60.33417037 44.90747865 65.79546602 43.375 71.20703125 C40.18405033 78.65732891 34.00598444 82.3266303 26.75 85.3125 C13.05639594 90.48030917 -0.33767907 88.23918837 -13.375 82.4375 C-14.73729678 81.81188908 -16.09929212 81.18562119 -17.4609375 80.55859375 C-21.00363088 78.87935178 -21.00363088 78.87935178 -25 78 C-25 73.38 -25 68.76 -25 64 C-24.01 64 -23.02 64 -22 64 C-21.69707031 64.59167969 -21.39414062 65.18335938 -21.08203125 65.79296875 C-16.74715135 73.96921915 -11.02245455 80.46094742 -2.359375 84.11328125 C5.49698124 86.18699389 15.43875959 86.64727238 23.13671875 83.8671875 C27.52552437 81.09607387 30.48106077 78.06313076 32 73 C32.66308876 68.76643327 32.36029056 65.81884217 30.625 61.875 C24.19645629 54.83421403 15.44844447 51.85117406 6.5625 49.0625 C-6.3819306 44.75868295 -17.22354113 39.79486503 -24.4375 27.5625 C-25.67980493 21.90311088 -25.9452325 17.0014185 -23.0625 11.8125 C-17.82096467 4.33099231 -9.08679583 -0.42264167 0 0 Z " fill="#050505" transform="translate(894,333)"/>
<path d="M0 0 C0.19847749 4.03787195 0.34323514 8.0738422 0.43945312 12.11547852 C0.47957083 13.4883775 0.53408586 14.86093698 0.60351562 16.23266602 C1.16307284 27.57604273 1.16307284 27.57604273 -1.60107422 30.96020508 C-3.69635728 32.31216986 -5.64653864 33.18808263 -8 34 C-9.03382813 34.44988281 -10.06765625 34.89976562 -11.1328125 35.36328125 C-20.27915624 38.26479761 -30.62814069 40.48488839 -39.6875 36.1875 C-44.42600897 33.05829596 -44.42600897 33.05829596 -46 31 C-46.85519377 25.66081727 -46.68432993 20.60668767 -44.5625 15.625 C-35.90780867 6.75921864 -25.73976164 4.63723101 -14 2 C-12.3603125 1.62681641 -12.3603125 1.62681641 -10.6875 1.24609375 C-6.96741087 0.45446764 -3.83226434 0 0 0 Z " fill="#FCFCFC" transform="translate(380,375)"/>
<path d="M0 0 C6.81125757 5.11745278 10.70205656 11.42352188 13.125 19.5 C13.125 20.82 13.125 22.14 13.125 23.5 C-8.655 23.5 -30.435 23.5 -52.875 23.5 C-51.39651564 14.62909383 -46.98128534 8.07744307 -39.875 2.5 C-29.14682606 -3.58298523 -11.12545348 -6.28681828 0 0 Z " fill="#FCFCFC" transform="translate(823.875,336.5)"/>
<path d="M0 0 C0 0.66 0 1.32 0 2 C-19.89696392 13.81203046 -37.42841784 18.17291501 -60.34130859 12.68676758 C-64.52163301 11.59519847 -68.20668224 10.05569549 -72 8 C-72 7.34 -72 6.68 -72 6 C-70.51113281 5.45472656 -70.51113281 5.45472656 -68.9921875 4.8984375 C-62.07985665 2.34656115 -55.24478766 -0.27995251 -48.5 -3.25 C-32.52398454 -10.12256521 -14.80802394 -10.44119646 0 0 Z " fill="#F3782D" transform="translate(584,249)"/>
<path d="M0 0 C-3.26000591 1.72819591 -6.59826634 2.98721738 -10.0625 4.25 C-31.13289608 12.33405577 -45.96255513 26.05517504 -55.66015625 46.5 C-61.36139146 60.03132039 -65.05489829 74.45528424 -67 89 C-67.66 89 -68.32 89 -69 89 C-72.9361294 69.13041879 -69.14501787 48.43024458 -58.6875 31.1875 C-54.95871176 25.65605255 -50.66022155 20.76134751 -46 16 C-45.48308594 15.44699219 -44.96617187 14.89398438 -44.43359375 14.32421875 C-32.25562711 2.5278072 -16.19562853 -0.41468181 0 0 Z " fill="#F37A30" transform="translate(645,232)"/>
<path d="M0 0 C0.91201172 -0.02449219 1.82402344 -0.04898438 2.76367188 -0.07421875 C9.06565114 -0.10132404 13.34883177 1.04883459 18.6875 4.375 C19.44160156 4.80941406 20.19570312 5.24382812 20.97265625 5.69140625 C28.37639446 10.88215897 33.368289 18.65908144 35.6875 27.375 C37.06979844 39.31414406 35.69619234 48.30324953 28.6875 58.375 C22.23267101 66.16021359 13.81865051 70.5000142 3.85546875 71.921875 C-6.26817066 72.65265019 -13.96332467 70.1535641 -22.3125 64.375 C-28.61541577 58.87712955 -33.76696514 51.73233668 -35.3125 43.375 C-36.45243581 25.22946441 -36.45243581 25.22946441 -31.3125 17.375 C-30.9 16.69308594 -30.4875 16.01117188 -30.0625 15.30859375 C-22.77723901 4.40139903 -12.64913591 0.01765406 0 0 Z M-25.125 15.25 C-30.40696936 21.63889688 -32.73152279 28.67632741 -32.58984375 37.00390625 C-31.48920868 46.41356104 -27.58456604 55.20205727 -20.1015625 61.125 C-11.32039439 67.19304973 -3.84557439 68.25185409 6.6875 67.375 C10.32527988 66.4859785 13.4190793 65.18813849 16.6875 63.375 C17.33203125 63.024375 17.9765625 62.67375 18.640625 62.3125 C25.02309768 58.31651711 29.43287452 51.48574189 31.6875 44.375 C32.84762853 33.56572551 32.27525149 24.46834928 25.6875 15.375 C19.68720271 8.32336857 10.83488614 4.07361669 1.609375 3.171875 C-8.94983195 2.94397845 -18.00262973 7.51414826 -25.125 15.25 Z " fill="#F37E36" transform="translate(1049.3125,213.625)"/>
<path d="M0 0 C0.33 0 0.66 0 1 0 C1.3258395 7.27502388 1.57381994 14.54845422 1.72537041 21.82932186 C1.79815805 25.21152508 1.89661143 28.58870689 2.05615234 31.96801758 C3.01232704 53.7953164 3.01232704 53.7953164 -0.31155396 59.08868408 C-3.97895888 62.75272876 -8.15350523 64.36908852 -13 66 C-15.23292037 66.99158996 -17.46279689 67.99010887 -19.6875 69 C-25.52659795 71.27558892 -30.41559401 72.23644617 -36.6875 72.3125 C-37.46544922 72.34150391 -38.24339844 72.37050781 -39.04492188 72.40039062 C-45.88880062 72.47459448 -50.5455766 70.41680741 -56.09375 66.53515625 C-59.63841635 62.82310288 -60.51026 59.68280112 -60.8125 54.5625 C-60.51699128 48.8427645 -59.31794168 45.57135284 -55.15234375 41.63671875 C-43.66243527 32.89938363 -28.03975014 30.50652318 -14.1875 27.6875 C-13.34590332 27.51597412 -12.50430664 27.34444824 -11.63720703 27.16772461 C-10.8429834 27.01311768 -10.04875977 26.85851074 -9.23046875 26.69921875 C-8.53332764 26.56346436 -7.83618652 26.42770996 -7.11791992 26.2878418 C-5 26 -5 26 0 26 C0 17.42 0 8.84 0 0 Z M-42.66015625 40.4375 C-46.512909 44.93050612 -46.54010235 49.40488253 -46.44921875 55.14453125 C-45.97405662 58.16490964 -45.59487206 59.17119564 -43.3125 61.125 C-34.88852271 65.89328903 -26.37144302 66.5573233 -16.9609375 64.01953125 C-10.81896051 62.13089949 -5.01039672 60.12814439 0 56 C0.82395384 52.82591435 0.82395384 52.82591435 0.5859375 49.265625 C0.56660156 47.97011719 0.54726563 46.67460937 0.52734375 45.33984375 C0.477215 43.97653835 0.42642536 42.61325711 0.375 41.25 C0.34489131 39.87115135 0.31751703 38.4922401 0.29296875 37.11328125 C0.22221326 33.74060269 0.12351802 30.37109173 0 27 C-13.46656073 27 -32.50083972 31.29659907 -42.66015625 40.4375 Z " fill="#161616" transform="translate(380,348)"/>
<path d="M0 0 C14.63636364 0 14.63636364 0 19 4 C20.64849053 5.64849053 20.2102571 7.55046635 20.25 9.8125 C20.27578125 10.68519531 20.3015625 11.55789062 20.328125 12.45703125 C19.93935277 15.47001602 19.08864858 16.82516931 17 19 C16.34 19 15.68 19 15 19 C15.5775 19.92683594 16.155 20.85367187 16.75 21.80859375 C17.50011664 23.01815684 18.25011031 24.22779619 19 25.4375 C19.3815625 26.04916016 19.763125 26.66082031 20.15625 27.29101562 C23 31.88671875 23 31.88671875 23 33 C20.7109375 33.33984375 20.7109375 33.33984375 18 33 C16.2265625 30.62890625 16.2265625 30.62890625 14.625 27.5625 C12.48774066 23.59906696 12.48774066 23.59906696 8.99609375 21.046875 C6.87886104 20.73112804 6.87886104 20.73112804 4 21 C4 24.96 4 28.92 4 33 C2.68 33 1.36 33 0 33 C0 22.11 0 11.22 0 0 Z " fill="#060606" transform="translate(216,238)"/>
<path d="M0 0 C14 0 14 0 19 4 C20.59472187 7.18944373 20.38490832 10.52918879 20 14 C18.625 17 18.625 17 17 19 C16.34 19 15.68 19 15 19 C15.5775 19.92683594 16.155 20.85367187 16.75 21.80859375 C17.50011664 23.01815684 18.25011031 24.22779619 19 25.4375 C19.3815625 26.04916016 19.763125 26.66082031 20.15625 27.29101562 C23 31.88671875 23 31.88671875 23 33 C20.73828125 33.3046875 20.73828125 33.3046875 18 33 C15.98046875 30.8828125 15.98046875 30.8828125 14.1875 28.125 C13.58292969 27.22007812 12.97835937 26.31515625 12.35546875 25.3828125 C11 23 11 23 11 21 C8.69 21 6.38 21 4 21 C4 24.96 4 28.92 4 33 C2.68 33 1.36 33 0 33 C0 22.11 0 11.22 0 0 Z " fill="#070707" transform="translate(899,462)"/>
<path d="M0 0 C2.64 0 5.28 0 8 0 C8.99 4.62 9.98 9.24 11 14 C11.66 14 12.32 14 13 14 C13.99 9.38 14.98 4.76 16 0 C18.64 0 21.28 0 24 0 C24 8.25 24 16.5 24 25 C22.35 25 20.7 25 19 25 C18.505 18.565 18.505 18.565 18 12 C17.01 16.29 16.02 20.58 15 25 C13.02 25 11.04 25 9 25 C8.01 20.71 7.02 16.42 6 12 C5.67 16.29 5.34 20.58 5 25 C3.35 25 1.7 25 0 25 C0 16.75 0 8.5 0 0 Z " fill="#F37E36" transform="translate(1049,237)"/>
<path d="M0 0 C7.86531474 6.74169835 7.86531474 6.74169835 10.89453125 10.05078125 C11.53970703 10.74880859 12.18488281 11.44683594 12.84960938 12.16601562 C13.49736328 12.87435547 14.14511719 13.58269531 14.8125 14.3125 C16.12891696 15.7484756 17.44780593 17.18219016 18.76953125 18.61328125 C19.34292236 19.24016846 19.91631348 19.86705566 20.50708008 20.51293945 C21.94992265 22.10594541 21.94992265 22.10594541 24 23 C24 15.74 24 8.48 24 1 C25.65 1 27.3 1 29 1 C29 12.22 29 23.44 29 35 C23.61334593 30.38286794 18.56384344 25.74676764 13.5625 20.75 C12.83095703 20.03070313 12.09941406 19.31140625 11.34570312 18.5703125 C10.31026367 17.53777344 10.31026367 17.53777344 9.25390625 16.484375 C8.62814697 15.86272461 8.0023877 15.24107422 7.35766602 14.60058594 C6 13 6 13 6 11 C5.34 11 4.68 11 4 11 C4 18.59 4 26.18 4 34 C2.68 34 1.36 34 0 34 C0 22.78 0 11.56 0 0 Z " fill="#121212" transform="translate(969,461)"/>
<path d="M0 0 C7.8887008 6.76174355 7.8887008 6.76174355 10.89453125 9.76171875 C11.86229492 10.72754883 11.86229492 10.72754883 12.84960938 11.71289062 C13.49736328 12.36451172 14.14511719 13.01613281 14.8125 13.6875 C15.47958984 14.35072266 16.14667969 15.01394531 16.83398438 15.69726562 C17.47271484 16.33728516 18.11144531 16.97730469 18.76953125 17.63671875 C19.34292236 18.21123779 19.91631348 18.78575684 20.50708008 19.37768555 C22 21 22 21 24 24 C24.33 16.41 24.66 8.82 25 1 C26.32 1 27.64 1 29 1 C29 12.22 29 23.44 29 35 C21.2 28.31428571 21.2 28.31428571 18.625 25.1875 C14.66785345 20.52726135 10.35535567 16.28835019 6 12 C5.67 19.26 5.34 26.52 5 34 C3.35 34 1.7 34 0 34 C0 22.78 0 11.56 0 0 Z " fill="#101010" transform="translate(761,461)"/>
<path d="M0 0 C1.65 0 3.3 0 5 0 C5 4.62 5 9.24 5 14 C10.61 14 16.22 14 22 14 C22 9.38 22 4.76 22 0 C23.32 0 24.64 0 26 0 C26 10.89 26 21.78 26 33 C24.68 33 23.36 33 22 33 C22 28.38 22 23.76 22 19 C16.39 19 10.78 19 5 19 C5 23.62 5 28.24 5 33 C3.35 33 1.7 33 0 33 C0 22.11 0 11.22 0 0 Z " fill="#151515" transform="translate(167,238)"/>
<path d="M0 0 C10.93793964 -0.85787762 21.64468058 2.94439693 30 10 C34.34951026 14.14876363 37.06855436 18.31296562 39 24 C39 25.32 39 26.64 39 28 C34.05 28 29.1 28 24 28 C23.29875 26.02 22.5975 24.04 21.875 22 C17.94892228 11.91063826 13.82613226 6.60934931 4 2 C2.66575092 1.33516798 1.33212561 0.66907666 0 0 Z " fill="#050505" transform="translate(814,333)"/>
<path d="M0 0 C7.875 6.75 7.875 6.75 11.18359375 10.0859375 C11.81579834 10.72063965 12.44800293 11.3553418 13.09936523 12.00927734 C13.87094971 12.78996582 14.64253418 13.5706543 15.4375 14.375 C17.933125 16.89125 20.42875 19.4075 23 22 C23.33 14.74 23.66 7.48 24 0 C25.32 0 26.64 0 28 0 C28 10.89 28 21.78 28 33 C20.125 26.25 20.125 26.25 16.81640625 22.9140625 C16.18420166 22.27936035 15.55199707 21.6446582 14.90063477 20.99072266 C14.12905029 20.21003418 13.35746582 19.4293457 12.5625 18.625 C10.066875 16.10875 7.57125 13.5925 5 11 C4.67 18.26 4.34 25.52 4 33 C2.68 33 1.36 33 0 33 C0 22.11 0 11.22 0 0 Z " fill="#040404" transform="translate(636,462)"/>
<path d="M0 0 C1.59134766 -0.00386719 1.59134766 -0.00386719 3.21484375 -0.0078125 C6.0625 0.125 6.0625 0.125 9.0625 1.125 C9.0625 2.775 9.0625 4.425 9.0625 6.125 C8.49273438 5.96644531 7.92296875 5.80789063 7.3359375 5.64453125 C1.93164097 4.40952878 -2.50774203 4.35905823 -7.4375 7 C-10.16988323 9.32252575 -10.81708563 10.05675251 -11.2109375 13.55078125 C-11.5183307 19.85064959 -11.5183307 19.85064959 -8.5625 25.25 C-4.9266417 27.84704165 -3.22803748 28.24410945 1.1875 28.1875 C2.09757813 28.17847656 3.00765625 28.16945313 3.9453125 28.16015625 C4.64398437 28.14855469 5.34265625 28.13695312 6.0625 28.125 C6.0625 25.815 6.0625 23.505 6.0625 21.125 C4.0825 21.125 2.1025 21.125 0.0625 21.125 C0.0625 19.805 0.0625 18.485 0.0625 17.125 C3.6925 17.125 7.3225 17.125 11.0625 17.125 C11.0625 21.415 11.0625 25.705 11.0625 30.125 C5.573295 33.68556541 0.3990352 33.93548706 -5.9375 33.125 C-10.17557889 31.81618152 -12.60758127 29.53951327 -15.375 26.0625 C-17.7389659 21.31410097 -17.7097208 16.2887391 -16.9375 11.125 C-13.27850582 3.67149334 -8.13938432 -0.01973184 0 0 Z " fill="#0C0C0C" transform="translate(701.9375,461.875)"/>
<path d="M0 0 C1.04929687 -0.01417969 2.09859375 -0.02835937 3.1796875 -0.04296875 C6.06047071 0.18245063 7.68740208 0.69785683 10.125 2.1875 C9.795 3.5075 9.465 4.8275 9.125 6.1875 C8.55652344 6.02765625 7.98804688 5.8678125 7.40234375 5.703125 C2.54471451 4.60328442 -2.17563172 4.50052133 -6.8125 6.375 C-9.78950365 8.99115473 -10.64883087 11.19640392 -11.09375 15.11328125 C-11.29734989 19.61792889 -10.83883552 22.58855687 -7.875 26.1875 C-4.5911309 28.29855871 -1.98080266 28.40430483 1.875 28.3125 C2.85984375 28.29445313 3.8446875 28.27640625 4.859375 28.2578125 C5.60703125 28.23460937 6.3546875 28.21140625 7.125 28.1875 C7.125 25.8775 7.125 23.5675 7.125 21.1875 C4.815 21.1875 2.505 21.1875 0.125 21.1875 C0.125 19.8675 0.125 18.5475 0.125 17.1875 C3.755 17.1875 7.385 17.1875 11.125 17.1875 C11.125 21.8075 11.125 26.4275 11.125 31.1875 C4.00182808 33.56189064 -2.36790824 34.90916323 -9.3125 31.5 C-14.72715526 26.61360379 -16.60226502 23.5148667 -17.1875 16.375 C-17.11692727 11.63780534 -15.61178176 9.03378789 -12.875 5.1875 C-8.42462748 1.16097248 -5.94915677 0.03636404 0 0 Z " fill="#0B0B0B" transform="translate(1034.875,461.8125)"/>
<path d="M0 0 C0.69287109 0.00451172 1.38574219 0.00902344 2.09960938 0.01367188 C3.79561068 0.02536844 5.49156703 0.04330076 7.1875 0.0625 C7.1875 0.3925 7.1875 0.7225 7.1875 1.0625 C6.60371582 1.12195801 6.01993164 1.18141602 5.41845703 1.24267578 C-12.08175677 3.02762775 -12.08175677 3.02762775 -26.375 12.625 C-27.95819812 15.30955334 -28.73629265 16.93799863 -28.8125 20.0625 C-27.8462499 22.07902194 -26.84541676 24.07929982 -25.8125 26.0625 C-25.3125 28.625 -25.3125 28.625 -25.8125 31.0625 C-28.31134415 34.36979372 -29.75620415 35.86848648 -33.875 36.625 C-37.44915177 35.94058796 -38.61253128 34.91431131 -40.8125 32.0625 C-42.05372431 28.33882708 -42.26310151 25.98917034 -41.8125 22.0625 C-35.97989051 10.73120905 -24.24994126 5.17887379 -12.8125 1.0625 C-8.55956665 -0.09118497 -4.3764152 -0.05444344 0 0 Z " fill="#131313" transform="translate(364.8125,331.9375)"/>
<path d="M0 0 C6.93 0 13.86 0 21 0 C21 1.32 21 2.64 21 4 C15.39 4 9.78 4 4 4 C4 7.3 4 10.6 4 14 C9.28 14 14.56 14 20 14 C20 15.65 20 17.3 20 19 C14.72 19 9.44 19 4 19 C4 22.3 4 25.6 4 29 C9.94 29 15.88 29 22 29 C22 30.32 22 31.64 22 33 C14.74 33 7.48 33 0 33 C0 22.11 0 11.22 0 0 Z " fill="#0B0B0B" transform="translate(302,238)"/>
<path d="M0 0 C6.93 0 13.86 0 21 0 C21 1.32 21 2.64 21 4 C15.39 4 9.78 4 4 4 C4 7.3 4 10.6 4 14 C9.28 14 14.56 14 20 14 C20 15.32 20 16.64 20 18 C14.72 18 9.44 18 4 18 C4 21.63 4 25.26 4 29 C9.94 29 15.88 29 22 29 C22 30.32 22 31.64 22 33 C14.74 33 7.48 33 0 33 C0 22.11 0 11.22 0 0 Z " fill="#040404" transform="translate(856,462)"/>
<path d="M0 0 C6.93 0 13.86 0 21 0 C21 1.32 21 2.64 21 4 C15.39 4 9.78 4 4 4 C4 7.3 4 10.6 4 14 C9.28 14 14.56 14 20 14 C20 15.32 20 16.64 20 18 C14.72 18 9.44 18 4 18 C4 21.63 4 25.26 4 29 C9.94 29 15.88 29 22 29 C22 30.32 22 31.64 22 33 C14.74 33 7.48 33 0 33 C0 22.11 0 11.22 0 0 Z " fill="#040404" transform="translate(813,462)"/>
<path d="M0 0 C6.93 0 13.86 0 21 0 C21 1.32 21 2.64 21 4 C15.39 4 9.78 4 4 4 C4 7.3 4 10.6 4 14 C8.95 14 13.9 14 19 14 C19 15.32 19 16.64 19 18 C14.05 18 9.1 18 4 18 C4 21.63 4 25.26 4 29 C9.94 29 15.88 29 22 29 C22 30.32 22 31.64 22 33 C14.74 33 7.48 33 0 33 C0 22.11 0 11.22 0 0 Z " fill="#040404" transform="translate(593,462)"/>
<path d="M0 0 C6.93 0 13.86 0 21 0 C21 1.32 21 2.64 21 4 C15.39 4 9.78 4 4 4 C4 7.63 4 11.26 4 15 C8.95 15 13.9 15 19 15 C19 15.99 19 16.98 19 18 C14.05 18 9.1 18 4 18 C4 21.63 4 25.26 4 29 C9.94 29 15.88 29 22 29 C22 30.32 22 31.64 22 33 C14.74 33 7.48 33 0 33 C0 22.11 0 11.22 0 0 Z " fill="#000000" transform="translate(259,238)"/>
<path d="M0 0 C2.30859375 1.02734375 2.30859375 1.02734375 4 2 C3.34 3.32 2.68 4.64 2 6 C1.01 5.67 0.02 5.34 -1 5 C-2.56118428 4.93259135 -4.1250252 4.91485544 -5.6875 4.9375 C-6.49574219 4.94652344 -7.30398437 4.95554688 -8.13671875 4.96484375 C-8.75160156 4.97644531 -9.36648437 4.98804688 -10 5 C-10.29628737 7.84534204 -10.29628737 7.84534204 -9 11 C-6.57377575 12.54556209 -4.0768784 13.67500919 -1.45703125 14.859375 C1.43510774 16.2019896 3.25313385 17.30029777 5 20 C5.61984499 24.26143432 5.49311964 26.24388322 3.125 29.875 C-0.06673937 33.06673937 -1.95898957 33.17896498 -6.375 33.25 C-7.33148438 33.27578125 -8.28796875 33.3015625 -9.2734375 33.328125 C-12.37892147 32.95439914 -13.70536066 32.06626291 -16 30 C-15.505 28.515 -15.505 28.515 -15 27 C-14.43667969 27.16242188 -13.87335938 27.32484375 -13.29296875 27.4921875 C-10.89553131 28.02313617 -8.76477875 28.13310671 -6.3125 28.125 C-5.52488281 28.12757813 -4.73726562 28.13015625 -3.92578125 28.1328125 C-1.99235086 28.21127778 -1.99235086 28.21127778 -1 27 C-0.95919217 25.00041636 -0.95745644 22.99954746 -1 21 C-1.75925781 20.60167969 -2.51851562 20.20335937 -3.30078125 19.79296875 C-4.29464844 19.26316406 -5.28851563 18.73335938 -6.3125 18.1875 C-7.29863281 17.66542969 -8.28476563 17.14335937 -9.30078125 16.60546875 C-11.64956481 15.2084354 -13.33338809 14.14278674 -15 12 C-15.63109197 7.74012918 -15.45683283 5.71570476 -13.125 2.0625 C-8.80966538 -0.78562085 -5.04535393 -0.77936361 0 0 Z " fill="#111111" transform="translate(142,238)"/>
<path d="M0 0 C6.6 0 13.2 0 20 0 C20 1.32 20 2.64 20 4 C17.36 4 14.72 4 12 4 C12 10.93 12 17.86 12 25 C10.35 25 8.7 25 7 25 C7 18.07 7 11.14 7 4 C4.69 4 2.38 4 0 4 C0 2.68 0 1.36 0 0 Z " fill="#F37B31" transform="translate(1026,237)"/>
<path d="M0 0 C0.99 0 1.98 0 3 0 C3.45439453 0.88751953 3.45439453 0.88751953 3.91796875 1.79296875 C8.25478021 9.97286237 14.00861681 16.56413094 22.73828125 20.11328125 C27.69686971 21.4613047 32.62114757 21.45573128 37.734375 21.65625 C41 22 41 22 43 24 C29.40378188 24.38359236 19.76025023 22.18635863 7.5390625 16.55859375 C3.99636912 14.87935178 3.99636912 14.87935178 0 14 C0 9.38 0 4.76 0 0 Z " fill="#242424" transform="translate(869,397)"/>
<path d="M0 0 C1.65 0 3.3 0 5 0 C5 10.89 5 21.78 5 33 C3.35 33 1.7 33 0 33 C0 22.11 0 11.22 0 0 Z " fill="#1E1E1E" transform="translate(734,462)"/>
<path d="M0 0 C7.21153846 -0.48076923 7.21153846 -0.48076923 10.5625 1.5625 C12 4 12 4 11.9375 7.625 C11 11 11 11 8 13 C5.95703125 13.1953125 5.95703125 13.1953125 3.8125 13.125 C1.9253125 13.063125 1.9253125 13.063125 0 13 C0 8.71 0 4.42 0 0 Z " fill="#E5E5E5" transform="translate(220,242)"/>
<path d="M0 0 C7.28089888 -0.48539326 7.28089888 -0.48539326 10.5 1.6875 C12 4 12 4 12.5625 6.5 C12 9 12 9 9.9375 11.3125 C6.37764693 13.35752198 4.04146606 13.31697773 0 13 C0 8.71 0 4.42 0 0 Z " fill="#EBEBEB" transform="translate(903,466)"/>
<path d="M0 0 C1.32 0 2.64 0 4 0 C4 10.89 4 21.78 4 33 C2.68 33 1.36 33 0 33 C0 22.11 0 11.22 0 0 Z " fill="#010101" transform="translate(942,462)"/>
<path d="M0 0 C7.74219654 0.17066966 14.01630772 1.86100833 21.15234375 4.84375 C24.13975434 6.13428662 24.13975434 6.13428662 28 7 C28 11.29 28 15.58 28 20 C27.01 20 26.02 20 25 20 C24.608125 19.13375 24.21625 18.2675 23.8125 17.375 C19.28329135 8.94130113 13.78332923 5.32124564 4.796875 2.24609375 C3.21049576 1.78501198 1.60672726 1.38421739 0 1 C0 0.67 0 0.34 0 0 Z " fill="#101010" transform="translate(906,333)"/>
<path d="M0 0 C3.3 0 6.6 0 10 0 C10.33 5.61 10.66 11.22 11 17 C12.546875 15.39125 14.09375 13.7825 15.6875 12.125 C18.96026853 8.72132073 21.45925821 6.42358391 26 5 C24.69347579 9.13616221 23.40484156 10.80083323 19.6875 13 C15.90807399 15.35299748 12.99260104 17.71779241 10 21 C9 20 9 20 8.88647461 18.14233398 C8.89171143 17.35157471 8.89694824 16.56081543 8.90234375 15.74609375 C8.90556641 14.89208984 8.90878906 14.03808594 8.91210938 13.15820312 C8.92048828 12.26037109 8.92886719 11.36253906 8.9375 10.4375 C8.94201172 9.53580078 8.94652344 8.63410156 8.95117188 7.70507812 C8.96299756 5.47002411 8.98093362 3.23500398 9 1 C6.03 1 3.06 1 0 1 C0 0.67 0 0.34 0 0 Z " fill="#282828" transform="translate(241,334)"/>
<path d="M0 0 C0 0.99 0 1.98 0 3 C-4.34199064 7.24550196 -9.44732931 10.57960508 -15 13 C-14.73046875 11.12109375 -14.73046875 11.12109375 -14 9 C-12.36328125 7.91015625 -12.36328125 7.91015625 -10.3125 7.0625 C-6.23755771 5.21959817 -3.31716049 2.98544444 0 0 Z " fill="#2F2F2F" transform="translate(846,402)"/>
<path d="M0 0 C-2.6598561 3.44216672 -5.90288286 3.99504674 -10 5 C-9.375 3.125 -9.375 3.125 -8 1 C-2.66666667 -1.33333333 -2.66666667 -1.33333333 0 0 Z " fill="#0D0D0D" transform="translate(832,413)"/>
<path d="M0 0 C2.3125 0.8125 2.3125 0.8125 5 2 C5.928125 2.37125 6.85625 2.7425 7.8125 3.125 C8.534375 3.41375 9.25625 3.7025 10 4 C10 4.33 10 4.66 10 5 C1.42857143 4.28571429 1.42857143 4.28571429 -2 1 C-1.34 0.67 -0.68 0.34 0 0 Z " fill="#282828" transform="translate(884,414)"/>
<path d="M0 0 C-3.2678206 2.17854707 -6.38058265 3.49760034 -10 5 C-10.33 4.01 -10.66 3.02 -11 2 C-7.17010894 0.19769832 -4.21878192 -0.19622241 0 0 Z " fill="#2E2E2E" transform="translate(894,333)"/>
</svg>
